<svg width="40" height="44" viewBox="0 0 40 44" fill="none" xmlns="http://www.w3.org/2000/svg">
<path d="M38.6239 32.4349C40.4585 33.3256 40.4585 34.8102 38.6239 35.9979L26.0879 43.4208C24.5591 44.312 23.0303 44.0147 23.0303 42.2332V26.7935C23.0303 25.0124 23.9475 24.7155 25.7821 25.6058L38.6239 32.4349Z" fill="#040C4D"/>
<path d="M20.3029 22.6958V42.6957C20.3029 44.2107 17.5756 43.9077 16.6665 43.3017L1.51514 33.9079C0.606056 33.3017 0 32.0896 0 30.8776L0.758564 11.7481C0.909084 10.3029 8.4043 5.89568 15.7574 1.48379C18.4847 -0.0314116 21.212 -0.637735 24.2422 0.877738L36.6664 8.45343C38.4845 9.66554 38.1815 12.0898 36.6664 12.9989L20.3029 22.6958Z" fill="#040C4D"/>
</svg>